<svg width="412" height="501" viewBox="0 0 412 501" fill="none" xmlns="http://www.w3.org/2000/svg">
<path d="M363.818 348.926L297 303.832V439.75L395 491.832L363.818 348.926Z" fill="#F14747"/>
<path d="M48.1818 348.926L115 303.832V439.75L17 491.832L48.1818 348.926Z" fill="#F14747"/>
<path d="M293.748 123.162C248.243 14.4675 206 9 206 9V449H333.796C333.796 449 339.254 231.856 293.748 123.162Z" fill="#D9D9D9"/>
<rect x="206" y="391.832" width="113" height="66" fill="#D9D9D9"/>
<rect x="206" y="400.832" width="99" height="66" fill="#D9D9D9"/>
<rect x="206" y="416.832" width="75" height="66" fill="#D9D9D9"/>
<path d="M118.252 123.162C163.757 14.4675 206 9 206 9V449H78.2043C78.2043 449 72.7464 231.856 118.252 123.162Z" fill="#D9D9D9"/>
<rect width="113" height="66" transform="matrix(-1 0 0 1 206 391.832)" fill="#D9D9D9"/>
<rect width="99" height="66" transform="matrix(-1 0 0 1 206 400.832)" fill="#D9D9D9"/>
<rect width="75" height="66" transform="matrix(-1 0 0 1 206 416.832)" fill="#D9D9D9"/>
</svg>
